<mxfile host="app.diagrams.net" modified="2020-09-08T13:00:45.247Z" agent="5.0 (Windows NT 10.0; Win64; x64) AppleWebKit/537.36 (KHTML, like Gecko) Chrome/79.0.3945.117 Safari/537.36" etag="p1A0Gww0ZcMbd6a8brn-" version="13.6.9" type="github">
  <diagram id="DdoQsM5gWPnd4OZK94Kb" name="Page-1">
    <mxGraphModel dx="648" dy="382" grid="1" gridSize="10" guides="1" tooltips="1" connect="1" arrows="1" fold="1" page="1" pageScale="1" pageWidth="827" pageHeight="1169" math="0" shadow="0">
      <root>
        <mxCell id="0" />
        <mxCell id="1" parent="0" />
        <mxCell id="znBHzXkmCNQ7pyG8SXvY-15" value="R1-BILSTM" style="rounded=0;whiteSpace=wrap;html=1;" vertex="1" parent="1">
          <mxGeometry x="352.5" y="710" width="250" height="60" as="geometry" />
        </mxCell>
        <mxCell id="znBHzXkmCNQ7pyG8SXvY-17" value="&lt;font&gt;C&lt;sub&gt;1&lt;/sub&gt;&lt;/font&gt;" style="ellipse;whiteSpace=wrap;html=1;aspect=fixed;" vertex="1" parent="1">
          <mxGeometry x="350" y="650" width="30" height="30" as="geometry" />
        </mxCell>
        <mxCell id="znBHzXkmCNQ7pyG8SXvY-19" value="&lt;span&gt;C&lt;/span&gt;&lt;sub&gt;3&lt;/sub&gt;" style="ellipse;whiteSpace=wrap;html=1;aspect=fixed;" vertex="1" parent="1">
          <mxGeometry x="450" y="650" width="30" height="30" as="geometry" />
        </mxCell>
        <mxCell id="znBHzXkmCNQ7pyG8SXvY-20" value="C&lt;span style=&quot;font-size: 10px&quot;&gt;&lt;sub&gt;t&lt;/sub&gt;&lt;/span&gt;" style="ellipse;whiteSpace=wrap;html=1;aspect=fixed;" vertex="1" parent="1">
          <mxGeometry x="580" y="650" width="30" height="30" as="geometry" />
        </mxCell>
        <mxCell id="znBHzXkmCNQ7pyG8SXvY-23" value="&lt;span&gt;C&lt;/span&gt;&lt;sub&gt;2&lt;/sub&gt;" style="ellipse;whiteSpace=wrap;html=1;aspect=fixed;" vertex="1" parent="1">
          <mxGeometry x="400" y="650" width="30" height="30" as="geometry" />
        </mxCell>
        <mxCell id="znBHzXkmCNQ7pyG8SXvY-25" value="" style="endArrow=classic;html=1;" edge="1" parent="1">
          <mxGeometry width="50" height="50" relative="1" as="geometry">
            <mxPoint x="330" y="665" as="sourcePoint" />
            <mxPoint x="350" y="664.5" as="targetPoint" />
          </mxGeometry>
        </mxCell>
        <mxCell id="znBHzXkmCNQ7pyG8SXvY-26" value="" style="endArrow=classic;html=1;entryX=0;entryY=0.5;entryDx=0;entryDy=0;exitX=1;exitY=0.5;exitDx=0;exitDy=0;" edge="1" parent="1" source="znBHzXkmCNQ7pyG8SXvY-17" target="znBHzXkmCNQ7pyG8SXvY-23">
          <mxGeometry width="50" height="50" relative="1" as="geometry">
            <mxPoint x="330" y="674.5" as="sourcePoint" />
            <mxPoint x="360" y="674.5" as="targetPoint" />
          </mxGeometry>
        </mxCell>
        <mxCell id="znBHzXkmCNQ7pyG8SXvY-27" value="" style="endArrow=classic;html=1;entryX=0;entryY=0.5;entryDx=0;entryDy=0;" edge="1" parent="1" target="znBHzXkmCNQ7pyG8SXvY-19">
          <mxGeometry width="50" height="50" relative="1" as="geometry">
            <mxPoint x="430" y="665" as="sourcePoint" />
            <mxPoint x="444" y="666" as="targetPoint" />
          </mxGeometry>
        </mxCell>
        <mxCell id="znBHzXkmCNQ7pyG8SXvY-28" value="" style="endArrow=classic;html=1;entryX=0.5;entryY=1;entryDx=0;entryDy=0;" edge="1" parent="1" target="znBHzXkmCNQ7pyG8SXvY-17">
          <mxGeometry width="50" height="50" relative="1" as="geometry">
            <mxPoint x="365" y="710" as="sourcePoint" />
            <mxPoint x="440" y="520" as="targetPoint" />
          </mxGeometry>
        </mxCell>
        <mxCell id="znBHzXkmCNQ7pyG8SXvY-29" value="" style="endArrow=classic;html=1;entryX=0.5;entryY=1;entryDx=0;entryDy=0;exitX=0.25;exitY=0;exitDx=0;exitDy=0;" edge="1" parent="1" source="znBHzXkmCNQ7pyG8SXvY-15" target="znBHzXkmCNQ7pyG8SXvY-23">
          <mxGeometry width="50" height="50" relative="1" as="geometry">
            <mxPoint x="375" y="720" as="sourcePoint" />
            <mxPoint x="375" y="680" as="targetPoint" />
          </mxGeometry>
        </mxCell>
        <mxCell id="znBHzXkmCNQ7pyG8SXvY-30" value="" style="endArrow=classic;html=1;entryX=0.5;entryY=1;entryDx=0;entryDy=0;" edge="1" parent="1" target="znBHzXkmCNQ7pyG8SXvY-19">
          <mxGeometry width="50" height="50" relative="1" as="geometry">
            <mxPoint x="465" y="710" as="sourcePoint" />
            <mxPoint x="425" y="680" as="targetPoint" />
          </mxGeometry>
        </mxCell>
        <mxCell id="znBHzXkmCNQ7pyG8SXvY-32" value="&lt;font style=&quot;font-size: 24px&quot;&gt;...&lt;/font&gt;" style="text;html=1;strokeColor=none;fillColor=none;align=center;verticalAlign=middle;whiteSpace=wrap;rounded=0;" vertex="1" parent="1">
          <mxGeometry x="510" y="645" width="40" height="20" as="geometry" />
        </mxCell>
        <mxCell id="znBHzXkmCNQ7pyG8SXvY-34" value="" style="edgeStyle=none;rounded=0;orthogonalLoop=1;jettySize=auto;html=1;" edge="1" parent="1">
          <mxGeometry relative="1" as="geometry">
            <mxPoint x="550" y="665" as="sourcePoint" />
            <mxPoint x="580" y="665.0481818181817" as="targetPoint" />
          </mxGeometry>
        </mxCell>
        <mxCell id="znBHzXkmCNQ7pyG8SXvY-33" value="" style="edgeStyle=none;rounded=0;orthogonalLoop=1;jettySize=auto;html=1;entryX=0;entryY=1;entryDx=0;entryDy=0;" edge="1" parent="1" source="znBHzXkmCNQ7pyG8SXvY-19" target="znBHzXkmCNQ7pyG8SXvY-32">
          <mxGeometry relative="1" as="geometry" />
        </mxCell>
        <mxCell id="znBHzXkmCNQ7pyG8SXvY-37" value="" style="endArrow=classic;html=1;entryX=0.5;entryY=1;entryDx=0;entryDy=0;" edge="1" parent="1">
          <mxGeometry width="50" height="50" relative="1" as="geometry">
            <mxPoint x="594.83" y="710" as="sourcePoint" />
            <mxPoint x="594.83" y="680" as="targetPoint" />
          </mxGeometry>
        </mxCell>
        <mxCell id="znBHzXkmCNQ7pyG8SXvY-40" value="" style="endArrow=classic;html=1;exitX=0.527;exitY=0.011;exitDx=0;exitDy=0;exitPerimeter=0;" edge="1" parent="1">
          <mxGeometry width="50" height="50" relative="1" as="geometry">
            <mxPoint x="242.16000000000008" y="710.44" as="sourcePoint" />
            <mxPoint x="365" y="680" as="targetPoint" />
          </mxGeometry>
        </mxCell>
        <mxCell id="znBHzXkmCNQ7pyG8SXvY-41" value="" style="endArrow=classic;html=1;entryX=0.5;entryY=1;entryDx=0;entryDy=0;exitX=0.5;exitY=0;exitDx=0;exitDy=0;" edge="1" parent="1" target="znBHzXkmCNQ7pyG8SXvY-23">
          <mxGeometry width="50" height="50" relative="1" as="geometry">
            <mxPoint x="240" y="710" as="sourcePoint" />
            <mxPoint x="380.0100000000001" y="660" as="targetPoint" />
          </mxGeometry>
        </mxCell>
        <mxCell id="znBHzXkmCNQ7pyG8SXvY-42" value="" style="endArrow=classic;html=1;exitX=0.5;exitY=0;exitDx=0;exitDy=0;entryX=0.5;entryY=1;entryDx=0;entryDy=0;" edge="1" parent="1" target="znBHzXkmCNQ7pyG8SXvY-19">
          <mxGeometry width="50" height="50" relative="1" as="geometry">
            <mxPoint x="240" y="710" as="sourcePoint" />
            <mxPoint x="460" y="649" as="targetPoint" />
          </mxGeometry>
        </mxCell>
        <mxCell id="znBHzXkmCNQ7pyG8SXvY-43" value="" style="endArrow=classic;html=1;exitX=0.5;exitY=0;exitDx=0;exitDy=0;" edge="1" parent="1">
          <mxGeometry width="50" height="50" relative="1" as="geometry">
            <mxPoint x="240" y="710" as="sourcePoint" />
            <mxPoint x="595" y="680" as="targetPoint" />
          </mxGeometry>
        </mxCell>
        <mxCell id="znBHzXkmCNQ7pyG8SXvY-44" value="" style="edgeStyle=none;rounded=0;orthogonalLoop=1;jettySize=auto;html=1;exitX=0.5;exitY=0;exitDx=0;exitDy=0;entryX=0.5;entryY=1;entryDx=0;entryDy=0;" edge="1" parent="1" source="znBHzXkmCNQ7pyG8SXvY-20" target="znBHzXkmCNQ7pyG8SXvY-49">
          <mxGeometry relative="1" as="geometry">
            <mxPoint x="610" y="664.52" as="sourcePoint" />
            <mxPoint x="640" y="664.5681818181815" as="targetPoint" />
          </mxGeometry>
        </mxCell>
        <mxCell id="znBHzXkmCNQ7pyG8SXvY-47" value="&lt;font&gt;h&lt;sub&gt;1&lt;/sub&gt;&lt;/font&gt;" style="ellipse;whiteSpace=wrap;html=1;aspect=fixed;" vertex="1" parent="1">
          <mxGeometry x="352.5" y="600" width="25" height="25" as="geometry" />
        </mxCell>
        <mxCell id="znBHzXkmCNQ7pyG8SXvY-49" value="&lt;font&gt;h&lt;sub&gt;t&lt;/sub&gt;&lt;/font&gt;" style="ellipse;whiteSpace=wrap;html=1;aspect=fixed;" vertex="1" parent="1">
          <mxGeometry x="582.5" y="600" width="25" height="25" as="geometry" />
        </mxCell>
        <mxCell id="znBHzXkmCNQ7pyG8SXvY-51" value="" style="endArrow=classic;html=1;exitX=0.5;exitY=0;exitDx=0;exitDy=0;entryX=0.5;entryY=1;entryDx=0;entryDy=0;" edge="1" parent="1" source="znBHzXkmCNQ7pyG8SXvY-17" target="znBHzXkmCNQ7pyG8SXvY-47">
          <mxGeometry width="50" height="50" relative="1" as="geometry">
            <mxPoint x="220" y="640" as="sourcePoint" />
            <mxPoint x="270" y="590" as="targetPoint" />
          </mxGeometry>
        </mxCell>
        <mxCell id="znBHzXkmCNQ7pyG8SXvY-52" value="&lt;font&gt;h&lt;sub&gt;2&lt;/sub&gt;&lt;/font&gt;" style="ellipse;whiteSpace=wrap;html=1;aspect=fixed;" vertex="1" parent="1">
          <mxGeometry x="402.5" y="600" width="25" height="25" as="geometry" />
        </mxCell>
        <mxCell id="znBHzXkmCNQ7pyG8SXvY-53" value="" style="endArrow=classic;html=1;exitX=0.5;exitY=0;exitDx=0;exitDy=0;entryX=0.5;entryY=1;entryDx=0;entryDy=0;" edge="1" parent="1" target="znBHzXkmCNQ7pyG8SXvY-52">
          <mxGeometry width="50" height="50" relative="1" as="geometry">
            <mxPoint x="414" y="650" as="sourcePoint" />
            <mxPoint x="319" y="590" as="targetPoint" />
          </mxGeometry>
        </mxCell>
        <mxCell id="znBHzXkmCNQ7pyG8SXvY-54" value="&lt;font&gt;h&lt;sub&gt;3&lt;/sub&gt;&lt;/font&gt;" style="ellipse;whiteSpace=wrap;html=1;aspect=fixed;" vertex="1" parent="1">
          <mxGeometry x="452.5" y="600" width="25" height="25" as="geometry" />
        </mxCell>
        <mxCell id="znBHzXkmCNQ7pyG8SXvY-55" value="" style="endArrow=classic;html=1;exitX=0.5;exitY=0;exitDx=0;exitDy=0;entryX=0.5;entryY=1;entryDx=0;entryDy=0;" edge="1" parent="1" target="znBHzXkmCNQ7pyG8SXvY-54">
          <mxGeometry width="50" height="50" relative="1" as="geometry">
            <mxPoint x="465" y="650" as="sourcePoint" />
            <mxPoint x="370" y="590" as="targetPoint" />
          </mxGeometry>
        </mxCell>
        <mxCell id="znBHzXkmCNQ7pyG8SXvY-56" value="R2-INT" style="rounded=0;whiteSpace=wrap;html=1;" vertex="1" parent="1">
          <mxGeometry x="170" y="710" width="120" height="60" as="geometry" />
        </mxCell>
      </root>
    </mxGraphModel>
  </diagram>
</mxfile>
